<?xml version="1.0" encoding="UTF-8" standalone="yes"?>
<svg width="200" height="200"
     viewBox="0 0 200 200"
     version="1.2"
     baseProfile="tiny-ps"
     xmlns="http://www.w3.org/2000/svg">

  <path d="M0 0L0 88L1 88C4.77968 44.7352 46.6158 1.60646 91 1L62 0L0 0z" fill="#fdfdfd" stroke="none"/>
  <path d="M91 0L91 1L96 1L91 0z" fill="#c36061" stroke="none"/>
  <path d="M83 1L83 2L86 5C74.2082 1.86699 58.6359 9.48723 48 14L50 16L21 38L23 40C13.862 49.5231 7.6876 64.2409 5 77L4 77L4 74L3 74C1.80931 94.4929 -1.49034 111.211 6.42593 131.01C8.41484 135.985 10.9896 144.736 16.2599 147.155C20.1555 148.944 25.8205 148 30 148C35.2934 148 45.0379 149.924 49 146L50 146L51 146C52.7637 148.414 54.277 146.965 56 145L47 135L44 138C44.072 129.324 38.6064 119.088 37.305 110C33.8937 86.1774 43.6805 60.7362 65 48L64 45L69 40C76.299 42.1743 82.7485 38.352 90 37.3052C100.497 35.7898 110.947 36.785 121 40.2454C151.369 50.699 173.042 88.1608 163.087 120C159.106 132.735 150.786 138.465 143 148L184 148L191 141L192 141C204.645 98.5534 202.139 48.3613 161 21L161 23C138.533 4.69107 110.654 0.999527 83 1z" fill="#822a28" stroke="none"/>
  <path d="M104 0L104 1L112 1L104 0z" fill="#d2817d" stroke="none"/>
  <path d="M112 0L112 1C151.917 6.23511 196.493 40.8541 199 84L200 84L200 0L112 0z" fill="#fdfdfd" stroke="none"/>
  <path d="M108 1L108 3C128.158 3.57413 144.299 12.7856 161 23C153.222 8.3616 123.395 1.08893 108 1z" fill="#5a1e15" stroke="none"/>
  <path d="M76 2L76 3L80 3L76 2z" fill="#ab8887" stroke="none"/>
  <path d="M64 7L64 8L86 5C84.5292 -1.86395 68.4496 5.33607 64 7z" fill="#541911" stroke="none"/>
  <path d="M120 2L120 3L123 3L120 2z" fill="#a38482" stroke="none"/>
  <path d="M124 3L124 4L128 4L124 3z" fill="#dbb9b2" stroke="none"/>
  <path d="M70.6667 4.33333L71.3333 4.66667L70.6667 4.33333z" fill="#9f7970" stroke="none"/>
  <path d="M128.667 4.33333L129.333 4.66667L128.667 4.33333z" fill="#a47d74" stroke="none"/>
  <path d="M66.6667 5.33333L67.3333 5.66667L66.6667 5.33333z" fill="#bf968a" stroke="none"/>
  <path d="M131.667 5.33333L132.333 5.66667L131.667 5.33333z" fill="#c09088" stroke="none"/>
  <path d="M64.6667 6.33333L65.3333 6.66667L64.6667 6.33333z" fill="#c08a7b" stroke="none"/>
  <path d="M134.667 6.33333L135.333 6.66667L134.667 6.33333z" fill="#ac7b77" stroke="none"/>
  <path d="M141 9L141 10L144 10L141 9z" fill="#cb9aa5" stroke="none"/>
  <path d="M24 37L50 16C41.3698 14.3857 27.4807 30.0717 24 37z" fill="#4c0f1c" stroke="none"/>
  <path d="M159 19L160 20L159 19z" fill="#af8b7d" stroke="none"/>
  <path d="M23 36L24 37L23 36z" fill="#ae867f" stroke="none"/>
  <path d="M96 36L96 37L102 37L96 36z" fill="#c99793" stroke="none"/>
  <path d="M59 150L28 150C23.9765 150 17.9095 151.082 14.3417 148.85C4.70295 142.821 1.29499 120.311 1 110L0 110L0 200L83 200L83 199C63.8903 195.258 44.5185 186.327 31 172L169 172C156.248 186.234 134.06 197.298 115 199L115 200L200 200L200 112L199 112L188 150L141 150C150.251 140.748 157.307 131.75 160.997 119C163.936 108.843 165.457 97.2911 162.513 87C158.582 73.2566 153.493 61.0021 141.972 51.6902C95.8874 14.4418 23.2522 55.1633 38.2665 115C41.9315 129.606 49.9626 138.546 59 150z" fill="#fdfdfd" stroke="none"/>
  <path d="M83 38L83 39L86 39L83 38z" fill="#a78483" stroke="none"/>
  <path d="M16 48L23 39L16 48z" fill="#511a0f" stroke="none"/>
  <path d="M80.6667 39.3333L81.3333 39.6667L80.6667 39.3333z" fill="#ad9898" stroke="none"/>
  <path d="M118.667 39.3333L119.333 39.6667L118.667 39.3333z" fill="#bb8d8a" stroke="none"/>
  <path d="M69 40L64 47L73 42L69 40z" fill="#491a17" stroke="none"/>
  <path d="M74.6667 41.3333L75.3333 41.6667L74.6667 41.3333z" fill="#c99b98" stroke="none"/>
  <path d="M72.6667 42.3333L73.3333 42.6667L72.6667 42.3333z" fill="#c29795" stroke="none"/>
  <path d="M126.667 42.3333L127.333 42.6667L126.667 42.3333z" fill="#b28983" stroke="none"/>
  <path d="M70.6667 43.3333L71.3333 43.6667L70.6667 43.3333z" fill="#c29896" stroke="none"/>
  <path d="M132.667 45.3333L133.333 45.6667L132.667 45.3333z" fill="#8e6d65" stroke="none"/>
  <path d="M15 48C9.22301 56.4511 4.59948 66.6824 4 77L5 77L15 48z" fill="#55191f" stroke="none"/>
  <path d="M10 55L10 58L11 58L10 55z" fill="#8c5f60" stroke="none"/>
  <path d="M190.333 56.6667L190.667 57.3333L190.333 56.6667z" fill="#b0746e" stroke="none"/>
  <path d="M193.333 62.6667L193.667 63.3333L193.333 62.6667z" fill="#a79e9c" stroke="none"/>
  <path d="M194.333 65.6667L194.667 66.3333L194.333 65.6667z" fill="#a16d5f" stroke="none"/>
  <path d="M5.33333 67.6667L5.66667 68.3333L5.33333 67.6667z" fill="#93695b" stroke="none"/>
  <path d="M88 68L88 69L104 68L88 68z" fill="#dab48f" stroke="none"/>
  <path d="M79 127C93.7709 134.409 102.513 133.782 117 126L117 131L132 131L132 69L117 69L117 74C101.643 67.3104 77.0391 63.0185 70.5922 85.0001C68.8944 90.7892 69.6007 99.0359 70.1997 105C71.0644 113.609 77.9407 118.887 79 127z" fill="#c97a32" stroke="none"/>
  <path d="M117 68L117 69L133 70L117 68z" fill="#fbdbb3" stroke="none"/>
  <path d="M195.333 68.6667L195.667 69.3333L195.333 68.6667z" fill="#a5756b" stroke="none"/>
  <path d="M4.33333 70.6667L4.66667 71.3333L4.33333 70.6667z" fill="#b08a85" stroke="none"/>
  <path d="M43.3333 70.6667L43.6667 71.3333L43.3333 70.6667z" fill="#d0a6a4" stroke="none"/>
  <path d="M132 70L132 131L117 131L117 132L133 132L133 90L132 70z" fill="#d2a379" stroke="none"/>
  <path d="M196.333 70.6667L196.667 71.3333L196.333 70.6667z" fill="#d5aaa6" stroke="none"/>
  <path d="M42.3333 72.6667L42.6667 73.3333L42.3333 72.6667z" fill="#c69c9a" stroke="none"/>
  <path d="M196.333 72.6667L196.667 73.3333L196.333 72.6667z" fill="#946361" stroke="none"/>
  <path d="M158.333 73.6667L158.667 74.3333L158.333 73.6667z" fill="#c0aca7" stroke="none"/>
  <path d="M197.333 75.6667L197.667 76.3333L197.333 75.6667z" fill="#b08888" stroke="none"/>
  <path d="M2 76L2 80L3 80L2 76z" fill="#967372" stroke="none"/>
  <path d="M198.333 78.6667L198.667 79.3333L198.333 78.6667z" fill="#d7b6b5" stroke="none"/>
  <path d="M96.0105 82.561C74.6573 87.269 83.4371 123.385 105.99 117.506C126.402 112.185 117.967 77.7198 96.0105 82.561z" fill="#fffdf5" stroke="none"/>
  <path d="M161.333 82.6667L161.667 83.3333L161.333 82.6667z" fill="#c39f9f" stroke="none"/>
  <path d="M107.667 83.3333L108.333 83.6667L107.667 83.3333z" fill="#daaa80" stroke="none"/>
  <path d="M162 84L162 88L163 88L162 84z" fill="#c49b9b" stroke="none"/>
  <path d="M199 84L199 88L200 88L199 84z" fill="#d6a097" stroke="none"/>
  <path d="M0 88L0 96L1 96L0 88z" fill="#df908d" stroke="none"/>
  <path d="M69 88C68.8142 101.596 65.9204 117.664 80 126L71.2881 109.99L69 88z" fill="#a5723b" stroke="none"/>
  <path d="M68 91L68 96L69 96L68 91z" fill="#d0a979" stroke="none"/>
  <path d="M36 93L36 104L37 104L36 93z" fill="#c99594" stroke="none"/>
  <path d="M117 96L117 104L118 104L117 96z" fill="#fbd9b3" stroke="none"/>
  <path d="M0 105L0 110L1 110L0 105z" fill="#ca7874" stroke="none"/>
  <path d="M163 106L163 109L164 109L163 106z" fill="#c6999a" stroke="none"/>
  <path d="M163 112L148 144C156.336 139.382 166.556 121.587 163 112z" fill="#58120f" stroke="none"/>
  <path d="M162.333 113.667L162.667 114.333L162.333 113.667z" fill="#a07a6d" stroke="none"/>
  <path d="M1 114L1 117L2 117L1 114z" fill="#916f6e" stroke="none"/>
  <path d="M38.3333 115.667L38.6667 116.333L38.3333 115.667z" fill="#9d706f" stroke="none"/>
  <path d="M198 116L198 120L199 120L198 116z" fill="#8a5b55" stroke="none"/>
  <path d="M96 118L96 119L104 119L96 118z" fill="#facba0" stroke="none"/>
  <path d="M39 120L44 138C47.9462 133.881 41.7919 123.966 39 120z" fill="#591c1f" stroke="none"/>
  <path d="M160.333 120.667L160.667 121.333L160.333 120.667z" fill="#be8582" stroke="none"/>
  <path d="M197.333 123.667L197.667 124.333L197.333 123.667z" fill="#b39089" stroke="none"/>
  <path d="M3 125L3 128L4 128L3 125z" fill="#c79d96" stroke="none"/>
  <path d="M4 125L12 149L57 149L56 146L51 146L50 146L49 146C43.2801 149.91 19.8985 150.52 14.6664 145.479C9.10944 140.125 7.847 131.409 4 125z" fill="#511a1a" stroke="none"/>
  <path d="M42.3333 126.667L42.6667 127.333L42.3333 126.667z" fill="#cfa6a4" stroke="none"/>
  <path d="M157.333 128.667L157.667 129.333L157.333 128.667z" fill="#9a5b50" stroke="none"/>
  <path d="M195.333 130.667L195.667 131.333L195.333 130.667z" fill="#d19f95" stroke="none"/>
  <path d="M5.33333 132.667L5.66667 133.333L5.33333 132.667z" fill="#d9aaa7" stroke="none"/>
  <path d="M92 133L92 134L102 134L92 133z" fill="#eac8a3" stroke="none"/>
  <path d="M193 136L192 140L193 140L193 136z" fill="#d0c4c4" stroke="none"/>
  <path d="M190 139C184.547 152.295 168.245 148 156 148C151.812 148 146.148 146.882 143 150C154.729 147.354 168.014 149.06 179.999 148.999C186.294 148.967 191.698 146.315 190 139z" fill="#511a1a" stroke="none"/>
  <path d="M190.333 142.667L190.667 143.333L190.333 142.667z" fill="#bc6966" stroke="none"/>
  <path d="M13 149L13 150L46 150L59 148L13 149z" fill="#8d6061" stroke="none"/>
  <path d="M142 148L141 150L143 150L142 148z" fill="#706d69" stroke="none"/>
  <path d="M144 149L144 150L188 150C175.92 145.485 156.91 149 144 149z" fill="#8d6061" stroke="none"/>
  <path d="M31.3333 172.667L31.6667 173.333L31.3333 172.667z" fill="#bcb0b0" stroke="none"/>
  <path d="M32 172L32 173L122 173L169 174C163.259 168.314 141.967 172 134 172L32 172z" fill="#9c776f" stroke="none"/>
  <path d="M32 173C37.796 179.814 47.1351 187.069 56 189L56 188L36 175L36 174L165 174L165 175L163 177L168 173L32 173z" fill="#491712" stroke="none"/>
  <path d="M36 174L36 175L56 191L69 193L77 198C105.479 203.188 144.948 197.362 165 175C153.94 170.867 136.804 174 125 174L36 174z" fill="#822a28" stroke="none"/>
  <path d="M163 177L164 178L163 177z" fill="#ad7481" stroke="none"/>
  <path d="M38.6667 179.333L39.3333 179.667L38.6667 179.333z" fill="#c19392" stroke="none"/>
  <path d="M48.6667 186.333L49.3333 186.667L48.6667 186.333z" fill="#ae7e7f" stroke="none"/>
  <path d="M150.667 186.333L151.333 186.667L150.667 186.333z" fill="#b78c8a" stroke="none"/>
  <path d="M54.6667 189.333L55.3333 189.667L54.6667 189.333z" fill="#966d6e" stroke="none"/>
  <path d="M63 192L63 193L78 197L63 192z" fill="#461a15" stroke="none"/>
  <path d="M112 198L112 199L137 193L112 198z" fill="#561f15" stroke="none"/>
  <path d="M66.6667 194.333L67.3333 194.667L66.6667 194.333z" fill="#8f685e" stroke="none"/>
  <path d="M69.6667 195.333L70.3333 195.667L69.6667 195.333z" fill="#976b62" stroke="none"/>
  <path d="M72.6667 196.333L73.3333 196.667L72.6667 196.333z" fill="#aa7f78" stroke="none"/>
  <path d="M126.667 196.333L127.333 196.667L126.667 196.333z" fill="#b99180" stroke="none"/>
  <path d="M75.6667 197.333L76.3333 197.667L75.6667 197.333z" fill="#9f716f" stroke="none"/>
  <path d="M123.667 197.333L124.333 197.667L123.667 197.333z" fill="#b89886" stroke="none"/>
  <path d="M116 198L116 199L120 199L116 198z" fill="#916255" stroke="none"/>
  <path d="M83 199L83 200L88 200L83 199z" fill="#d7a199" stroke="none"/>
  <path d="M108 199L108 200L115 200L108 199z" fill="#b1625b" stroke="none"/>
</svg>