<?xml version="1.0" encoding="UTF-8" standalone="yes"?>
<svg width="200px" height="200px" viewBox="0 0 200 200" version="1.2" baseProfile="tiny-ps" xmlns="http://www.w3.org/2000/svg">
  <title>bimi-svg-tiny-12-ps</title>
  <g id="surface1">
    <path d="M 160.691406 95.703125 C 160.6875 110.867188 160.410156 125.839844 160.789062 140.800781 C 161.015625 149.605469 154.238281 158.832031 144.953125 161.339844 C 142.9375 161.886719 140.890625 162.195312 138.792969 162.195312 C 112.890625 162.191406 86.992188 162.246094 61.089844 162.1875 C 48.210938 162.15625 39.511719 150.628906 39.613281 140.824219 C 39.890625 113.625 39.703125 86.421875 39.714844 59.21875 C 39.71875 48.078125 49.222656 38.546875 60.375 38.535156 C 86.863281 38.511719 113.347656 38.507812 139.835938 38.535156 C 149.902344 38.542969 158.898438 46.160156 160.566406 56.082031 C 160.84375 57.730469 160.703125 59.457031 160.703125 61.148438 C 160.707031 72.601562 160.695312 84.054688 160.691406 95.703125 M 158.125 82.226562 C 158.117188 74.351562 158.175781 66.476562 158.085938 58.601562 C 157.984375 49.703125 149.472656 41.167969 140.527344 41.148438 C 113.648438 41.082031 86.765625 41.082031 59.886719 41.15625 C 51.011719 41.179688 42.332031 50.015625 42.320312 58.890625 C 42.289062 86.484375 42.304688 114.082031 42.3125 141.675781 C 42.316406 142.515625 42.363281 143.371094 42.527344 144.191406 C 44.273438 152.933594 52.96875 159.519531 61.304688 159.464844 C 87.203125 159.300781 113.105469 159.410156 139.007812 159.398438 C 140.496094 159.398438 141.992188 159.359375 143.460938 158.972656 C 152.425781 156.609375 158.113281 149.296875 158.121094 140.023438 C 158.132812 120.886719 158.125 101.753906 158.125 82.226562 Z M 158.125 82.226562 " stroke="none" fill-rule="nonzero" fill="rgb(0%,0%,0%)" fill-opacity="1"/>
    <path d="M 112.5 79.972656 C 119.332031 79.972656 125.972656 80.035156 132.609375 79.9375 C 134.460938 79.90625 134.984375 80.5625 134.914062 82.304688 C 134.808594 85.097656 134.824219 87.902344 134.914062 90.699219 C 134.960938 92.207031 134.480469 92.769531 132.910156 92.734375 C 128.746094 92.644531 124.578125 92.773438 120.417969 92.671875 C 118.621094 92.628906 118.082031 93.238281 118.085938 95.03125 C 118.144531 109.546875 118.113281 124.058594 118.101562 138.574219 C 118.101562 141.5 118.097656 141.503906 115.078125 141.5 C 111.824219 141.5 108.566406 141.429688 105.316406 141.527344 C 103.609375 141.578125 103.070312 140.976562 103.074219 139.265625 C 103.128906 124.558594 103.074219 109.851562 103.136719 95.140625 C 103.144531 93.316406 102.683594 92.597656 100.742188 92.660156 C 96.710938 92.792969 92.671875 92.652344 88.636719 92.726562 C 87.132812 92.75 86.535156 92.257812 86.578125 90.710938 C 86.664062 87.847656 86.691406 84.980469 86.5625 82.121094 C 86.480469 80.3125 87.257812 79.949219 88.875 79.960938 C 96.683594 80.015625 104.496094 79.976562 112.5 79.972656 Z M 112.5 79.972656 " stroke="none" fill-rule="nonzero" fill="rgb(0%,0%,0%)" fill-opacity="1"/>
    <path d="M 65.890625 91.796875 C 65.890625 88.480469 65.96875 85.351562 65.867188 82.234375 C 65.8125 80.5625 66.316406 79.910156 68.070312 79.964844 C 71.648438 80.074219 75.230469 80.0625 78.804688 79.945312 C 80.503906 79.890625 81.050781 80.417969 81.039062 82.152344 C 80.976562 94.578125 81.015625 107.007812 81.015625 119.433594 C 81.015625 126.003906 80.941406 132.578125 81.042969 139.148438 C 81.074219 141.078125 80.402344 141.609375 78.566406 141.542969 C 75.253906 141.417969 71.933594 141.503906 68.613281 141.503906 C 65.898438 141.503906 65.894531 141.503906 65.890625 138.835938 C 65.890625 123.222656 65.890625 107.605469 65.890625 91.796875 Z M 65.890625 91.796875 " stroke="none" fill-rule="nonzero" fill="rgb(0%,0%,0%)" fill-opacity="1"/>
    <path d="M 143.4375 98.824219 C 144.363281 100.765625 144.136719 102.441406 142.558594 103.6875 C 141.148438 104.800781 139.507812 104.808594 138.027344 103.773438 C 136.601562 102.777344 136.160156 101.332031 136.628906 99.640625 C 136.824219 98.921875 137.199219 98.257812 137.835938 97.925781 C 139.144531 97.242188 139.339844 96.171875 139.328125 94.835938 C 139.285156 88.722656 139.320312 82.609375 139.3125 76.496094 C 139.308594 74.160156 139.085938 73.921875 136.730469 73.921875 C 120.796875 73.90625 104.863281 73.90625 88.929688 73.902344 C 88.796875 73.902344 88.667969 73.921875 88.539062 73.90625 C 87.644531 73.808594 86.238281 74.296875 86.273438 72.835938 C 86.3125 71.417969 87.726562 71.839844 88.609375 71.839844 C 102.269531 71.820312 115.925781 71.832031 129.582031 71.839844 C 131.988281 71.839844 134.394531 71.828125 136.800781 71.835938 C 140.171875 71.847656 141.125 72.78125 141.128906 76.085938 C 141.132812 81.746094 141.199219 87.402344 141.105469 93.058594 C 141.070312 95.324219 141.035156 97.445312 143.4375 98.824219 M 138.496094 101.164062 C 138.933594 102.039062 139.566406 102.664062 140.613281 102.390625 C 141.410156 102.183594 141.988281 101.605469 141.929688 100.71875 C 141.878906 99.949219 141.394531 99.398438 140.59375 99.304688 C 139.410156 99.164062 138.582031 99.574219 138.496094 101.164062 Z M 138.496094 101.164062 " stroke="none" fill-rule="nonzero" fill="rgb(0%,0%,0%)" fill-opacity="1"/>
    <path d="M 121.160156 63.769531 C 123.816406 64.183594 125.039062 65.355469 124.960938 67.246094 C 124.882812 69.027344 123.355469 70.484375 121.488281 70.558594 C 120.453125 70.601562 119.433594 70.332031 118.90625 69.46875 C 118.074219 68.097656 116.867188 68.097656 115.535156 68.101562 C 106.757812 68.121094 97.980469 68.113281 89.207031 68.113281 C 88.816406 68.117188 88.421875 68.148438 88.035156 68.109375 C 87.320312 68.035156 86.257812 68.34375 86.320312 67.125 C 86.375 66.089844 87.335938 66.300781 88 66.300781 C 94.046875 66.28125 100.089844 66.289062 106.136719 66.289062 C 109.257812 66.289062 112.378906 66.265625 115.496094 66.296875 C 116.828125 66.3125 118.054688 66.355469 118.820312 64.902344 C 119.222656 64.136719 120.148438 63.910156 121.160156 63.769531 Z M 121.160156 63.769531 " stroke="none" fill-rule="nonzero" fill="rgb(0%,0%,0%)" fill-opacity="1"/>
    <path d="M 110.460938 63.648438 C 108.039062 65.019531 106.894531 64.933594 105.191406 63.082031 C 104.460938 62.285156 103.652344 62.253906 102.734375 62.257812 C 97.789062 62.273438 92.847656 62.289062 87.90625 62.289062 C 87.171875 62.289062 86.160156 62.558594 86.207031 61.316406 C 86.246094 60.253906 87.171875 60.4375 87.847656 60.433594 C 92.789062 60.414062 97.734375 60.417969 102.675781 60.417969 C 103.585938 60.417969 104.375 60.421875 105.03125 59.472656 C 106.414062 57.472656 108.507812 57.144531 110.242188 58.4375 C 111.894531 59.671875 112.015625 61.542969 110.460938 63.648438 M 109.339844 60.40625 C 108.707031 59.667969 107.976562 59.378906 107.140625 60.050781 C 106.589844 60.496094 106.339844 61.09375 106.746094 61.773438 C 107.054688 62.292969 107.5 62.792969 108.148438 62.601562 C 109.074219 62.332031 109.832031 61.824219 109.339844 60.40625 Z M 109.339844 60.40625 " stroke="none" fill-rule="nonzero" fill="rgb(0%,0%,0%)" fill-opacity="1"/>
    <path d="M 81.460938 70.300781 C 80.714844 70.375 80.136719 70.414062 79.558594 70.40625 C 78.089844 70.398438 77.546875 69.644531 77.585938 68.191406 C 77.621094 66.753906 78.296875 66.210938 79.625 66.277344 C 80.621094 66.324219 81.902344 65.945312 82.34375 67.167969 C 82.722656 68.214844 82.949219 69.476562 81.460938 70.300781 Z M 81.460938 70.300781 " stroke="none" fill-rule="nonzero" fill="rgb(0%,0%,0%)" fill-opacity="1"/>
    <path d="M 70.328125 73.089844 C 70.398438 71.949219 70.390625 70.9375 71.539062 70.488281 C 72.695312 70.035156 73.820312 70.65625 73.945312 71.886719 C 74.015625 72.59375 73.941406 73.3125 73.957031 74.027344 C 73.980469 75.167969 73.601562 75.882812 72.300781 75.921875 C 71.078125 75.953125 70.496094 75.390625 70.386719 74.230469 C 70.355469 73.90625 70.347656 73.582031 70.328125 73.089844 Z M 70.328125 73.089844 " stroke="none" fill-rule="nonzero" fill="rgb(0%,0%,0%)" fill-opacity="1"/>
    <path d="M 73.957031 59.449219 C 73.953125 60.144531 73.964844 60.664062 73.933594 61.179688 C 73.871094 62.203125 73.4375 62.984375 72.300781 62.933594 C 71.234375 62.882812 70.710938 62.15625 70.648438 61.121094 C 70.613281 60.542969 70.636719 59.957031 70.640625 59.375 C 70.644531 58.269531 71.050781 57.429688 72.273438 57.390625 C 73.503906 57.351562 73.96875 58.132812 73.957031 59.449219 Z M 73.957031 59.449219 " stroke="none" fill-rule="nonzero" fill="rgb(0%,0%,0%)" fill-opacity="1"/>
    <path d="M 65.222656 67.316406 C 66.695312 65.914062 69.40625 65.871094 70.054688 67.101562 C 70.503906 67.957031 70.578125 68.898438 69.929688 69.671875 C 68.984375 70.796875 67.664062 70.425781 66.460938 70.292969 C 65.5625 70.191406 65.140625 69.542969 65.132812 68.648438 C 65.128906 68.261719 65.15625 67.871094 65.222656 67.316406 M 68.246094 68.660156 C 68.542969 68.527344 68.945312 68.234375 68.660156 68.003906 C 68.042969 67.507812 67.320312 67.519531 66.6875 68.089844 C 66.957031 68.8125 67.507812 68.683594 68.246094 68.660156 Z M 68.246094 68.660156 " stroke="none" fill-rule="nonzero" fill="rgb(0%,0%,0%)" fill-opacity="1"/>
    <path d="M 68.039062 60.414062 C 68.871094 59.78125 68.390625 59.007812 68.515625 58.339844 C 68.609375 57.839844 68.855469 57.46875 69.410156 57.519531 C 69.867188 57.558594 70.117188 57.933594 70.089844 58.335938 C 70.015625 59.542969 70.5625 61.023438 69.644531 61.882812 C 68.6875 62.777344 67.152344 62.125 65.886719 62.347656 C 65.578125 62.398438 65.3125 62.070312 65.257812 61.714844 C 65.1875 61.265625 65.410156 60.890625 65.796875 60.792969 C 66.484375 60.621094 67.199219 60.570312 68.039062 60.414062 Z M 68.039062 60.414062 " stroke="none" fill-rule="nonzero" fill="rgb(0%,0%,0%)" fill-opacity="1"/>
    <path d="M 77.578125 58.640625 C 77.566406 57.886719 77.804688 57.433594 78.457031 57.488281 C 79.074219 57.539062 79.347656 58.082031 79.308594 58.609375 C 79.179688 60.21875 79.675781 61.085938 81.46875 60.789062 C 81.945312 60.710938 82.40625 60.980469 82.398438 61.539062 C 82.390625 62.210938 81.894531 62.363281 81.3125 62.328125 C 80.925781 62.300781 80.53125 62.222656 80.15625 62.269531 C 78.214844 62.519531 77.359375 61.726562 77.621094 59.757812 C 77.664062 59.445312 77.601562 59.113281 77.578125 58.640625 Z M 77.578125 58.640625 " stroke="none" fill-rule="nonzero" fill="rgb(0%,0%,0%)" fill-opacity="1"/>
    <path d="M 80.4375 71.339844 C 81.261719 71.433594 82.25 71.097656 82.308594 72.109375 C 82.363281 73.058594 81.433594 73.105469 80.734375 73.101562 C 79.550781 73.097656 79.390625 73.816406 79.375 74.75 C 79.363281 75.296875 79.167969 75.808594 78.5 75.792969 C 77.800781 75.78125 77.761719 75.207031 77.683594 74.691406 C 77.328125 72.257812 77.941406 71.457031 80.4375 71.339844 Z M 80.4375 71.339844 " stroke="none" fill-rule="nonzero" fill="rgb(0%,0%,0%)" fill-opacity="1"/>
    <path d="M 69.957031 74.863281 C 69.820312 75.53125 69.546875 75.894531 69 75.789062 C 68.484375 75.6875 68.253906 75.238281 68.285156 74.761719 C 68.367188 73.484375 67.753906 73.03125 66.542969 73.0625 C 65.9375 73.078125 65.296875 72.832031 65.332031 72.09375 C 65.371094 71.261719 66.128906 71.402344 66.675781 71.355469 C 69.703125 71.09375 69.949219 71.351562 69.957031 74.863281 Z M 69.957031 74.863281 " stroke="none" fill-rule="nonzero" fill="rgb(0%,0%,0%)" fill-opacity="1"/>
    <path d="M 76.554688 66.109375 C 76.546875 66.738281 76.582031 67.195312 76.527344 67.636719 C 76.441406 68.332031 76.84375 69.476562 75.675781 69.417969 C 74.613281 69.363281 74.957031 68.253906 74.878906 67.535156 C 74.800781 66.84375 75.074219 66.074219 74.601562 65.472656 C 73.980469 64.683594 74.226562 64.15625 75.011719 63.800781 C 75.957031 63.378906 76.292969 63.996094 76.441406 64.785156 C 76.511719 65.160156 76.523438 65.550781 76.554688 66.109375 Z M 76.554688 66.109375 " stroke="none" fill-rule="nonzero" fill="rgb(0%,0%,0%)" fill-opacity="1"/>
    <path d="M 74.816406 71.707031 C 74.535156 70.695312 75.078125 70.359375 75.792969 70.390625 C 76.527344 70.421875 76.65625 71.066406 76.664062 71.675781 C 76.6875 72.953125 76.621094 74.234375 77.125 75.539062 C 75.878906 76.050781 75.042969 76.222656 75.207031 74.460938 C 75.289062 73.585938 75.472656 72.652344 74.816406 71.707031 Z M 74.816406 71.707031 " stroke="none" fill-rule="nonzero" fill="rgb(0%,0%,0%)" fill-opacity="1"/>
    <path d="M 73.1875 66.066406 C 73.1875 66.890625 73.214844 67.535156 73.175781 68.175781 C 73.140625 68.710938 73.296875 69.484375 72.433594 69.460938 C 71.753906 69.445312 71.796875 68.789062 71.753906 68.28125 C 71.660156 67.15625 71.953125 66 71.171875 64.945312 C 70.820312 64.46875 71.339844 63.972656 71.84375 63.769531 C 72.421875 63.539062 72.890625 63.796875 73.050781 64.363281 C 73.183594 64.847656 73.152344 65.378906 73.1875 66.066406 Z M 73.1875 66.066406 " stroke="none" fill-rule="nonzero" fill="rgb(0%,0%,0%)" fill-opacity="1"/>
    <path d="M 66.132812 63.601562 C 67.207031 63.5625 68.117188 63.542969 69.027344 63.53125 C 69.566406 63.519531 70.148438 63.539062 70.214844 64.230469 C 70.289062 64.992188 69.710938 65.253906 69.09375 65.285156 C 68.125 65.339844 67.109375 65.457031 66.179688 65.253906 C 65 64.996094 64.796875 64.335938 66.132812 63.601562 Z M 66.132812 63.601562 " stroke="none" fill-rule="nonzero" fill="rgb(0%,0%,0%)" fill-opacity="1"/>
    <path d="M 75.066406 62.421875 C 75.175781 61.078125 75.609375 59.875 74.746094 58.738281 C 74.414062 58.296875 74.625 57.867188 75.078125 57.605469 C 75.605469 57.296875 76.214844 57.367188 76.398438 57.917969 C 76.894531 59.410156 76.878906 60.972656 76.425781 62.460938 C 76.257812 63.003906 75.605469 62.992188 75.066406 62.421875 Z M 75.066406 62.421875 " stroke="none" fill-rule="nonzero" fill="rgb(0%,0%,0%)" fill-opacity="1"/>
    <path d="M 81.800781 63.703125 C 82.507812 64.242188 82.632812 64.894531 81.929688 65.136719 C 80.714844 65.558594 79.410156 65.492188 78.160156 65.125 C 77.855469 65.03125 77.703125 64.671875 77.757812 64.324219 C 77.832031 63.882812 78.171875 63.65625 78.570312 63.644531 C 79.59375 63.613281 80.617188 63.636719 81.800781 63.703125 Z M 81.800781 63.703125 " stroke="none" fill-rule="nonzero" fill="rgb(0%,0%,0%)" fill-opacity="1"/>
  </g>
</svg>