<?xml version="1.0" encoding="UTF-8" standalone="yes"?>
<svg version="1.2" width="100%" viewBox="0 0 512 512" xml:space="preserve" baseProfile="tiny-ps" xmlns="http://www.w3.org/2000/svg">
  <title>bimi-svg-tiny-12-ps</title>
  <path fill="#000000" stroke="none" d="&#xA;M411.368591,244.999939 &#xA;&#x9;C411.364594,283.817841 410.648895,322.153870 411.623840,360.446808 &#xA;&#x9;C412.197754,382.989502 394.848572,406.606110 371.076843,413.033997 &#xA;&#x9;C365.923889,414.427338 360.675964,415.216003 355.309998,415.215912 &#xA;&#x9;C289.003357,415.214813 222.696457,415.351868 156.390198,415.200012 &#xA;&#x9;C123.422844,415.124512 101.148849,385.607910 101.406059,360.513611 &#xA;&#x9;C102.119751,290.882111 101.635246,221.238556 101.665573,151.599792 &#xA;&#x9;C101.678001,123.076569 126.006348,98.678864 154.559021,98.653725 &#xA;&#x9;C222.365082,98.594009 290.171265,98.581993 357.977295,98.647163 &#xA;&#x9;C383.748810,98.671928 406.780945,118.168976 411.052490,143.569412 &#xA;&#x9;C411.762726,147.792755 411.401184,152.209427 411.402374,156.536789 &#xA;&#x9;C411.410645,185.857849 411.383240,215.178894 411.368591,244.999939 &#xA;M404.795227,210.500031 &#xA;&#x9;C404.779022,190.339462 404.930511,170.177017 404.702179,150.018845 &#xA;&#x9;C404.444183,127.238586 382.653107,105.393501 359.749390,105.338661 &#xA;&#x9;C290.937012,105.173927 222.123611,105.174034 153.311264,105.357361 &#xA;&#x9;C130.592316,105.417885 108.372635,128.042618 108.344093,150.755875 &#xA;&#x9;C108.255333,221.401657 108.300987,292.047607 108.324745,362.693512 &#xA;&#x9;C108.325470,364.841492 108.453011,367.030823 108.872063,369.130890 &#xA;&#x9;C113.338417,391.513885 135.601837,408.367828 156.940063,408.233093 &#xA;&#x9;C223.244339,407.814453 289.552948,408.092682 355.859863,408.057220 &#xA;&#x9;C359.673950,408.055176 363.496460,407.957581 367.256073,406.967621 &#xA;&#x9;C390.206207,400.924652 404.774170,382.202393 404.789856,358.456787 &#xA;&#x9;C404.822205,309.471252 404.796814,260.485626 404.795227,210.500031 &#xA;z"/>
  <path fill="#000000" stroke="none" d="&#xA;M288.000061,204.726471 &#xA;&#x9;C305.494537,204.730225 322.491425,204.893219 339.481934,204.636581 &#xA;&#x9;C344.223389,204.564972 345.555817,206.238754 345.383270,210.698441 &#xA;&#x9;C345.106537,217.852081 345.146606,225.029480 345.375671,232.186523 &#xA;&#x9;C345.499420,236.053146 344.271545,237.488846 340.252686,237.401154 &#xA;&#x9;C329.594574,237.168533 318.923706,237.501816 308.266815,237.242783 &#xA;&#x9;C303.667175,237.130966 302.286652,238.689194 302.304810,243.284027 &#xA;&#x9;C302.451782,280.437836 302.366455,317.592560 302.344818,354.747009 &#xA;&#x9;C302.340454,362.242554 302.326385,362.245148 294.598877,362.244568 &#xA;&#x9;C286.268250,362.243927 277.932404,362.060394 269.609161,362.306549 &#xA;&#x9;C265.243652,362.435669 263.857300,360.903625 263.873199,356.522217 &#xA;&#x9;C264.009857,318.869293 263.874573,281.215332 264.027069,243.562500 &#xA;&#x9;C264.045990,238.888550 262.872986,237.045532 257.897919,237.209671 &#xA;&#x9;C247.579163,237.550110 237.239166,237.191238 226.912476,237.375595 &#xA;&#x9;C223.062347,237.444336 221.526825,236.183853 221.643860,232.218384 &#xA;&#x9;C221.860031,224.894012 221.929916,217.547806 221.602203,210.231247 &#xA;&#x9;C221.394913,205.603592 223.384842,204.667709 227.520172,204.697372 &#xA;&#x9;C247.512497,204.840698 267.506592,204.740753 288.000061,204.726471 &#xA;z"/>
  <path fill="#000000" stroke="none" d="&#xA;M168.682739,235.000092 &#xA;&#x9;C168.684753,226.505142 168.875046,218.504150 168.616272,210.517700 &#xA;&#x9;C168.477707,206.241684 169.771561,204.572464 174.263397,204.709076 &#xA;&#x9;C183.415253,204.987427 192.588547,204.957260 201.740479,204.663528 &#xA;&#x9;C206.087662,204.523987 207.485367,205.865921 207.463104,210.311066 &#xA;&#x9;C207.303726,242.123291 207.399887,273.936768 207.402451,305.749847 &#xA;&#x9;C207.403809,322.572357 207.211533,339.397461 207.472458,356.215729 &#xA;&#x9;C207.549194,361.161621 205.827484,362.520447 201.133209,362.346008 &#xA;&#x9;C192.650223,362.030731 184.147293,362.249207 175.652695,362.249878 &#xA;&#x9;C168.704086,362.250427 168.685425,362.253693 168.684509,355.424377 &#xA;&#x9;C168.679169,315.449615 168.683258,275.474854 168.682739,235.000092 &#xA;z"/>
  <path fill="#000000" stroke="none" d="&#xA;M367.197327,252.989410 &#xA;&#x9;C369.567596,257.962372 368.991333,262.245453 364.953644,265.436340 &#xA;&#x9;C361.340088,268.292023 357.135193,268.306458 353.345642,265.656494 &#xA;&#x9;C349.699707,263.106995 348.567719,259.412659 349.765533,255.076019 &#xA;&#x9;C350.272247,253.241440 351.229126,251.542313 352.858704,250.692352 &#xA;&#x9;C356.212189,248.943283 356.708191,246.203690 356.683197,242.782135 &#xA;&#x9;C356.568939,227.132599 356.662384,211.481674 356.640900,195.831314 &#xA;&#x9;C356.632690,189.845428 356.063080,189.241196 350.027954,189.235565 &#xA;&#x9;C309.237213,189.197510 268.446472,189.198105 227.655716,189.187195 &#xA;&#x9;C227.322800,189.187103 226.985870,189.237701 226.657623,189.201981 &#xA;&#x9;C224.366287,188.952652 220.767044,190.203232 220.864334,186.464874 &#xA;&#x9;C220.959030,182.827148 224.579559,183.910660 226.842834,183.907379 &#xA;&#x9;C261.806091,183.856552 296.769501,183.894318 331.732849,183.908783 &#xA;&#x9;C337.893066,183.911331 344.053314,183.882187 350.213470,183.901840 &#xA;&#x9;C358.843231,183.929367 361.277161,186.323181 361.287262,194.781342 &#xA;&#x9;C361.304596,209.266281 361.470001,223.753967 361.232605,238.234894 &#xA;&#x9;C361.137543,244.034134 361.046570,249.460220 367.197327,252.989410 &#xA;M354.552399,258.983734 &#xA;&#x9;C355.668976,261.224640 357.293671,262.819275 359.965790,262.120300 &#xA;&#x9;C362.006592,261.586456 363.486053,260.109589 363.339264,257.844818 &#xA;&#x9;C363.211365,255.871567 361.967651,254.462997 359.920380,254.217728 &#xA;&#x9;C356.893677,253.855118 354.767365,254.909485 354.552399,258.983734 &#xA;z"/>
  <path fill="#000000" stroke="none" d="&#xA;M310.168762,163.247787 &#xA;&#x9;C316.968933,164.307220 320.104523,167.306488 319.898071,172.152527 &#xA;&#x9;C319.703766,176.713165 315.792297,180.440521 311.010223,180.633652 &#xA;&#x9;C308.355560,180.740860 305.745697,180.052902 304.398682,177.838455 &#xA;&#x9;C302.265778,174.332031 299.177826,174.327408 295.765228,174.335464 &#xA;&#x9;C273.299072,174.388535 250.832718,174.369904 228.366425,174.374985 &#xA;&#x9;C227.367935,174.375214 226.360489,174.464767 225.372879,174.362076 &#xA;&#x9;C223.537048,174.171249 220.820831,174.959534 220.980530,171.835251 &#xA;&#x9;C221.115997,169.185440 223.578735,169.730957 225.280548,169.725632 &#xA;&#x9;C240.757263,169.677185 256.234192,169.697708 271.711060,169.697540 &#xA;&#x9;C279.699127,169.697464 287.687744,169.639709 295.674957,169.722260 &#xA;&#x9;C299.077423,169.757416 302.221893,169.868790 304.181000,166.147751 &#xA;&#x9;C305.213318,164.187057 307.582245,163.606354 310.168762,163.247787 &#xA;z"/>
  <path fill="#000000" stroke="none" d="&#xA;M282.776794,162.938309 &#xA;&#x9;C276.579773,166.450821 273.647125,166.227112 269.293854,161.493942 &#xA;&#x9;C267.417999,159.454391 265.346222,159.367279 262.997162,159.375473 &#xA;&#x9;C250.343826,159.419556 237.690384,159.455811 225.036987,159.456482 &#xA;&#x9;C223.155380,159.456573 220.573395,160.147156 220.692001,156.965759 &#xA;&#x9;C220.793076,154.254608 223.160492,154.715515 224.889099,154.708572 &#xA;&#x9;C237.542526,154.657700 250.196198,154.668945 262.849792,154.668350 &#xA;&#x9;C265.183502,154.668243 267.197662,154.675400 268.880859,152.246490 &#xA;&#x9;C272.423920,147.133713 277.775330,146.285416 282.216766,149.598587 &#xA;&#x9;C286.450989,152.757172 286.762970,157.549698 282.776794,162.938309 &#xA;M279.914154,154.641434 &#xA;&#x9;C278.291656,152.753281 276.417603,152.010010 274.283783,153.731613 &#xA;&#x9;C272.872620,154.870163 272.226135,156.400223 273.267700,158.143387 &#xA;&#x9;C274.061646,159.472198 275.196472,160.748032 276.857117,160.261490 &#xA;&#x9;C279.225861,159.567520 281.170624,158.268814 279.914154,154.641434 &#xA;z"/>
  <path fill="#000000" stroke="none" d="&#xA;M208.537842,179.971603 &#xA;&#x9;C206.630707,180.159698 205.149445,180.255386 203.668991,180.244171 &#xA;&#x9;C199.910904,180.215714 198.524551,178.290024 198.618774,174.567276 &#xA;&#x9;C198.711823,170.890762 200.438019,169.495087 203.842743,169.666077 &#xA;&#x9;C206.388702,169.793930 209.668045,168.817902 210.802658,171.948441 &#xA;&#x9;C211.773117,174.626114 212.347061,177.863815 208.537842,179.971603 &#xA;z"/>
  <path fill="#000000" stroke="none" d="&#xA;M180.041016,187.111786 &#xA;&#x9;C180.222931,184.185059 180.198380,181.599854 183.136887,180.452179 &#xA;&#x9;C186.101105,179.294449 188.978271,180.877762 189.298401,184.028580 &#xA;&#x9;C189.482269,185.838272 189.293243,187.683197 189.330658,189.511063 &#xA;&#x9;C189.390427,192.431763 188.416702,194.262955 185.094467,194.355072 &#xA;&#x9;C181.964874,194.441818 180.470474,192.996567 180.191559,190.026581 &#xA;&#x9;C180.113922,189.199783 180.087280,188.368179 180.041016,187.111786 &#xA;z"/>
  <path fill="#000000" stroke="none" d="&#xA;M189.333038,152.194473 &#xA;&#x9;C189.315750,153.967270 189.345932,155.295456 189.265854,156.616974 &#xA;&#x9;C189.106827,159.240921 188.001709,161.241241 185.090912,161.106033 &#xA;&#x9;C182.360977,160.979233 181.024124,159.121277 180.862228,156.472794 &#xA;&#x9;C180.771423,154.987488 180.830902,153.492477 180.836761,152.001877 &#xA;&#x9;C180.847885,149.169128 181.893280,147.017044 185.019241,146.918015 &#xA;&#x9;C188.170624,146.818176 189.360580,148.823669 189.333038,152.194473 &#xA;z"/>
  <path fill="#000000" stroke="none" d="&#xA;M166.968048,172.325607 &#xA;&#x9;C170.741150,168.743408 177.680359,168.629944 179.337006,171.776886 &#xA;&#x9;C180.491440,173.969864 180.678589,176.384720 179.016861,178.361496 &#xA;&#x9;C176.595245,181.242218 173.216705,180.290726 170.144226,179.949661 &#xA;&#x9;C167.835693,179.693405 166.760788,178.031143 166.737320,175.740280 &#xA;&#x9;C166.727142,174.745483 166.802994,173.749832 166.968048,172.325607 &#xA;M174.714111,175.767593 &#xA;&#x9;C175.473831,175.429306 176.503525,174.679214 175.771423,174.092300 &#xA;&#x9;C174.187851,172.822830 172.343353,172.854431 170.723175,174.308319 &#xA;&#x9;C171.410706,176.157745 172.815430,175.833710 174.714111,175.767593 &#xA;z"/>
  <path fill="#000000" stroke="none" d="&#xA;M174.177277,154.657623 &#xA;&#x9;C176.309158,153.040894 175.083130,151.063370 175.400360,149.347290 &#xA;&#x9;C175.636368,148.070648 176.266006,147.123138 177.691544,147.248840 &#xA;&#x9;C178.861435,147.352020 179.496811,148.306076 179.432129,149.338837 &#xA;&#x9;C179.238571,152.429321 180.643494,156.224472 178.290710,158.419388 &#xA;&#x9;C175.836212,160.709183 171.906296,159.040039 168.665756,159.605988 &#xA;&#x9;C167.879471,159.743317 167.198059,158.903290 167.056610,157.986618 &#xA;&#x9;C166.879898,156.841354 167.448105,155.881577 168.443909,155.630280 &#xA;&#x9;C170.196594,155.187958 172.029587,155.063904 174.177277,154.657623 &#xA;z"/>
  <path fill="#000000" stroke="none" d="&#xA;M198.598389,150.116760 &#xA;&#x9;C198.571716,148.192261 199.181000,147.027725 200.848343,147.169113 &#xA;&#x9;C202.434998,147.303665 203.134750,148.687317 203.026596,150.035492 &#xA;&#x9;C202.695541,154.161789 203.973236,156.378021 208.559280,155.624359 &#xA;&#x9;C209.776001,155.424423 210.962692,156.106949 210.944366,157.543015 &#xA;&#x9;C210.922394,159.263382 209.653488,159.650574 208.164780,159.556549 &#xA;&#x9;C207.174805,159.494034 206.163971,159.285706 205.197250,159.410980 &#xA;&#x9;C200.231186,160.054474 198.039032,158.018631 198.714951,152.984421 &#xA;&#x9;C198.823273,152.177628 198.663544,151.334854 198.598389,150.116760 &#xA;z"/>
  <path fill="#000000" stroke="none" d="&#xA;M205.920593,182.625107 &#xA;&#x9;C208.030350,182.873886 210.558868,182.012573 210.710098,184.595276 &#xA;&#x9;C210.852371,187.025330 208.466568,187.147903 206.684372,187.140869 &#xA;&#x9;C203.652664,187.128906 203.240448,188.971970 203.199051,191.359558 &#xA;&#x9;C203.174728,192.761032 202.672531,194.067245 200.955704,194.032227 &#xA;&#x9;C199.172562,193.995895 199.069153,192.530075 198.874222,191.207458 &#xA;&#x9;C197.956818,184.982773 199.529785,182.933716 205.920593,182.625107 &#xA;z"/>
  <path fill="#000000" stroke="none" d="&#xA;M179.094147,191.653503 &#xA;&#x9;C178.739746,193.355896 178.042557,194.290726 176.641281,194.019287 &#xA;&#x9;C175.317703,193.762894 174.733658,192.613495 174.811935,191.392212 &#xA;&#x9;C175.021637,188.120056 173.448654,186.959671 170.350525,187.038864 &#xA;&#x9;C168.800751,187.078506 167.163940,186.449310 167.249771,184.559357 &#xA;&#x9;C167.346573,182.428085 169.285019,182.794952 170.692993,182.672852 &#xA;&#x9;C178.436569,182.001282 179.073730,182.657455 179.094147,191.653503 &#xA;z"/>
  <path fill="#000000" stroke="none" d="&#xA;M195.981567,169.242157 &#xA;&#x9;C195.959854,170.848770 196.050568,172.015320 195.909714,173.153214 &#xA;&#x9;C195.689697,174.930527 196.723816,177.856827 193.731369,177.707657 &#xA;&#x9;C191.011093,177.572052 191.889832,174.725540 191.687653,172.894669 &#xA;&#x9;C191.491760,171.120850 192.193329,169.147583 190.981140,167.612823 &#xA;&#x9;C189.385513,165.592529 190.024460,164.237442 192.033600,163.333710 &#xA;&#x9;C194.449692,162.246918 195.314011,163.827286 195.693298,165.845642 &#xA;&#x9;C195.874756,166.811340 195.896240,167.807114 195.981567,169.242157 &#xA;z"/>
  <path fill="#000000" stroke="none" d="&#xA;M191.533417,183.574661 &#xA;&#x9;C190.814804,180.980438 192.200119,180.123917 194.031357,180.202209 &#xA;&#x9;C195.906494,180.282379 196.238617,181.928482 196.263382,183.488190 &#xA;&#x9;C196.315292,186.759033 196.154114,190.043900 197.439102,193.377945 &#xA;&#x9;C194.248337,194.687897 192.105530,195.126297 192.528458,190.617783 &#xA;&#x9;C192.738602,188.377747 193.214844,185.992294 191.533417,183.574661 &#xA;z"/>
  <path fill="#000000" stroke="none" d="&#xA;M187.364990,169.131653 &#xA;&#x9;C187.355560,171.239487 187.431854,172.888351 187.326752,174.525558 &#xA;&#x9;C187.238419,175.901291 187.642136,177.880630 185.434128,177.821747 &#xA;&#x9;C183.694321,177.775330 183.799179,176.102921 183.690948,174.796783 &#xA;&#x9;C183.452530,171.919373 184.204666,168.962494 182.200165,166.257095 &#xA;&#x9;C181.302094,165.044998 182.625626,163.773544 183.921524,163.252853 &#xA;&#x9;C185.397507,162.659805 186.602936,163.318069 187.009247,164.774719 &#xA;&#x9;C187.353821,166.009995 187.267654,167.365387 187.364990,169.131653 &#xA;z"/>
  <path fill="#000000" stroke="none" d="&#xA;M169.295364,162.820984 &#xA;&#x9;C172.050705,162.718872 174.381012,162.674927 176.711411,162.635254 &#xA;&#x9;C178.094559,162.611710 179.575256,162.655640 179.750839,164.425415 &#xA;&#x9;C179.944473,166.377197 178.461029,167.047058 176.883423,167.132095 &#xA;&#x9;C174.395370,167.266174 171.804962,167.570465 169.421310,167.051727 &#xA;&#x9;C166.402039,166.394653 165.884659,164.696594 169.295364,162.820984 &#xA;z"/>
  <path fill="#000000" stroke="none" d="&#xA;M192.172760,159.803833 &#xA;&#x9;C192.449799,156.360291 193.555130,153.283768 191.353943,150.367844 &#xA;&#x9;C190.499527,149.236008 191.037491,148.142624 192.198807,147.468765 &#xA;&#x9;C193.551987,146.683594 195.114349,146.861679 195.581055,148.269348 &#xA;&#x9;C196.846375,152.085709 196.814850,156.090637 195.649124,159.903824 &#xA;&#x9;C195.224014,161.294327 193.547348,161.257874 192.172760,159.803833 &#xA;z"/>
  <path fill="#000000" stroke="none" d="&#xA;M209.407562,163.083923 &#xA;&#x9;C211.215302,164.461914 211.538696,166.128708 209.741852,166.749573 &#xA;&#x9;C206.629135,167.825058 203.285172,167.663498 200.090515,166.715714 &#xA;&#x9;C199.308899,166.483826 198.923538,165.559204 199.064789,164.674530 &#xA;&#x9;C199.246185,163.538223 200.119965,162.957947 201.142517,162.926331 &#xA;&#x9;C203.758591,162.845474 206.379318,162.914948 209.407562,163.083923 &#xA;z"/>
</svg>