<?xml version="1.0" encoding="UTF-8" standalone="yes"?>
<svg version="1.2" width="100%" viewBox="0 0 1024 1024" xml:space="preserve" baseProfile="tiny-ps" xmlns="http://www.w3.org/2000/svg">
  <title>bimi-svg-tiny-12-ps</title>
  <path fill="#000000" stroke="none" d="&#xA;M740.015869,199.753906 &#xA;&#x9;C783.588562,213.386017 811.301575,241.341843 820.591797,286.261749 &#xA;&#x9;C821.662109,291.436890 822.071533,296.836365 822.073608,302.132080 &#xA;&#x9;C822.127686,442.461365 822.191528,582.790833 821.983887,723.119873 &#xA;&#x9;C821.937683,754.362061 808.046082,779.509277 785.306152,800.153198 &#xA;&#x9;C771.199341,812.959778 754.665466,821.272400 736.247498,825.920837 &#xA;&#x9;C728.777771,827.806030 721.167969,828.418274 713.475098,828.405457 &#xA;&#x9;C689.475891,828.365417 665.476379,828.338928 641.477356,828.417786 &#xA;&#x9;C611.835144,828.515198 582.193481,828.838684 552.551453,828.850586 &#xA;&#x9;C524.924316,828.861755 497.296967,828.454712 469.669922,828.477417 &#xA;&#x9;C421.855652,828.516724 374.041077,828.923767 326.227661,828.791199 &#xA;&#x9;C311.128235,828.749329 295.855957,829.240845 281.204681,824.177673 &#xA;&#x9;C240.612274,810.149780 214.473343,782.776062 204.269989,740.766418 &#xA;&#x9;C203.054016,735.760010 202.701859,730.582825 202.702866,725.390991 &#xA;&#x9;C202.730530,583.061462 202.491486,440.731232 202.919525,298.402985 &#xA;&#x9;C203.015900,266.361206 218.744659,241.129044 242.888062,221.028809 &#xA;&#x9;C262.535492,204.671646 285.233368,196.535233 310.994629,196.559265 &#xA;&#x9;C430.986938,196.671188 550.979492,196.539810 670.971802,196.644974 &#xA;&#x9;C687.622864,196.659561 704.267822,195.455460 720.928772,196.572479 &#xA;&#x9;C727.286438,196.998718 733.423279,198.400864 740.015869,199.753906 &#xA;M250.168900,231.662460 &#xA;&#x9;C246.587250,235.147980 242.850662,238.489334 239.450546,242.143753 &#xA;&#x9;C223.973724,258.778076 215.335617,278.285675 215.183838,301.217804 &#xA;&#x9;C215.070236,318.381805 215.051041,335.546722 215.050110,352.711212 &#xA;&#x9;C215.043365,475.364044 215.115723,598.016907 214.970474,720.669556 &#xA;&#x9;C214.953491,735.016663 217.575531,748.646423 224.542007,761.021667 &#xA;&#x9;C243.856796,795.332642 272.367798,815.734741 312.795654,815.802917 &#xA;&#x9;C437.948273,816.013855 563.101501,815.877808 688.254456,815.852417 &#xA;&#x9;C699.750977,815.850098 711.366272,816.708191 722.722961,815.400208 &#xA;&#x9;C766.946045,810.306763 809.909912,770.626953 809.766174,718.827698 &#xA;&#x9;C809.382385,580.521484 809.640259,442.213593 809.540283,303.906433 &#xA;&#x9;C809.536133,298.113464 808.942993,292.236877 807.863831,286.543365 &#xA;&#x9;C803.374268,262.857758 790.676941,244.158859 771.857971,229.544632 &#xA;&#x9;C755.813171,217.084732 737.798523,209.108719 717.176636,209.088760 &#xA;&#x9;C582.525818,208.958435 447.874573,209.135757 313.224152,208.867813 &#xA;&#x9;C289.426819,208.820465 268.816681,216.120102 250.168900,231.662460 &#xA;z"/>
  <path fill="#000000" stroke="none" d="&#xA;M602.660950,409.479187 &#xA;&#x9;C629.073792,409.366455 655.041748,409.220764 681.009644,409.077850 &#xA;&#x9;C689.211731,409.032715 689.182861,409.036041 689.184204,417.381836 &#xA;&#x9;C689.186829,434.041229 689.101624,450.702271 689.328735,467.358887 &#xA;&#x9;C689.390137,471.860352 688.103455,473.412689 683.393738,473.363251 &#xA;&#x9;C659.073364,473.108002 634.749390,473.184448 610.426697,473.161499 &#xA;&#x9;C604.131470,473.155579 604.044006,473.255432 604.035706,479.614838 &#xA;&#x9;C604.001465,505.920013 604.292847,532.230408 603.856750,558.528809 &#xA;&#x9;C603.453613,582.836304 603.794739,607.144348 603.691772,631.446350 &#xA;&#x9;C603.569702,660.250977 602.898865,689.066223 603.557068,717.872253 &#xA;&#x9;C603.639954,721.498779 602.489746,722.459412 599.073547,722.447754 &#xA;&#x9;C576.761780,722.371582 554.448792,722.361328 532.137878,722.542969 &#xA;&#x9;C527.421021,722.581360 527.699280,719.766602 527.701782,716.644226 &#xA;&#x9;C527.724915,687.490173 527.733276,658.336182 527.727905,629.182129 &#xA;&#x9;C527.718872,579.536865 527.699768,529.891663 527.676819,480.246399 &#xA;&#x9;C527.673523,473.138916 527.652527,473.158783 520.365112,473.168854 &#xA;&#x9;C496.375580,473.201935 472.385437,473.137848 448.397125,473.320801 &#xA;&#x9;C444.267151,473.352325 442.794464,472.056458 442.828522,467.904236 &#xA;&#x9;C442.971985,450.413086 443.015747,432.918152 442.780060,415.428864 &#xA;&#x9;C442.717072,410.756805 444.329407,409.517883 448.836761,409.529938 &#xA;&#x9;C495.304199,409.654327 541.772156,409.591125 588.239990,409.568787 &#xA;&#x9;C592.898682,409.566559 597.557312,409.489594 602.660950,409.479187 &#xA;z"/>
  <path fill="#000000" stroke="none" d="&#xA;M339.569763,722.675537 &#xA;&#x9;C335.804718,721.373413 336.823334,718.485413 336.821991,716.172058 &#xA;&#x9;C336.787811,657.362732 336.815643,598.553406 336.823547,539.744080 &#xA;&#x9;C336.829102,498.594208 336.814819,457.444336 336.825806,416.294464 &#xA;&#x9;C336.827576,409.657867 336.867737,409.709686 343.437012,409.651154 &#xA;&#x9;C364.915833,409.459808 386.396606,409.345856 407.871002,408.918884 &#xA;&#x9;C412.652405,408.823792 414.221497,410.272583 414.214630,415.110199 &#xA;&#x9;C414.072144,515.568848 414.069214,616.027771 414.022064,716.486572 &#xA;&#x9;C414.019165,722.661072 413.704681,722.931580 407.478973,722.920471 &#xA;&#x9;C384.989990,722.880249 362.501038,722.822266 339.569763,722.675537 &#xA;z"/>
  <path fill="#000000" stroke="none" d="&#xA;M721.957886,496.639221 &#xA;&#x9;C725.589966,498.690613 729.194458,500.045776 731.748291,503.133484 &#xA;&#x9;C738.580811,511.394501 737.062378,523.565674 728.313477,530.117126 &#xA;&#x9;C719.739685,536.537292 707.122192,534.250610 701.039124,525.173950 &#xA;&#x9;C695.188721,516.444458 697.673462,504.108490 706.981750,499.199432 &#xA;&#x9;C711.159668,496.996033 712.048157,494.398651 712.035095,490.203735 &#xA;&#x9;C711.925476,455.047424 711.983398,419.890564 711.972229,384.733887 &#xA;&#x9;C711.970215,378.537109 711.045959,377.344788 704.959167,376.814392 &#xA;&#x9;C700.323975,376.410553 695.645020,376.401733 690.985474,376.399963 &#xA;&#x9;C612.840942,376.370636 534.696411,376.365479 456.551880,376.376770 &#xA;&#x9;C452.723236,376.377319 448.894836,376.588898 445.065826,376.681030 &#xA;&#x9;C442.298462,376.747620 440.512360,375.468506 440.394104,372.639648 &#xA;&#x9;C440.273468,369.753326 441.581512,367.824921 444.756714,367.743805 &#xA;&#x9;C446.755157,367.692749 448.754974,367.674713 450.754150,367.674774 &#xA;&#x9;C535.231567,367.677551 619.709045,367.683441 704.186462,367.690735 &#xA;&#x9;C715.605774,367.691711 721.216858,373.391815 721.218506,384.914825 &#xA;&#x9;C721.223572,419.905365 721.237366,454.895935 721.279724,489.886444 &#xA;&#x9;C721.282288,492.034668 721.562073,494.182526 721.957886,496.639221 &#xA;M714.219971,506.390991 &#xA;&#x9;C709.115051,508.724792 706.399231,512.554321 707.485901,516.573669 &#xA;&#x9;C708.667664,520.944946 711.468750,523.729797 716.308350,523.956848 &#xA;&#x9;C721.336487,524.192749 724.645508,522.005066 726.143494,517.346741 &#xA;&#x9;C728.150208,511.106445 723.067810,506.052124 714.219971,506.390991 &#xA;z"/>
  <path fill="#000000" stroke="none" d="&#xA;M616.786011,326.217407 &#xA;&#x9;C628.077148,324.905090 636.559509,330.533478 638.144531,339.997070 &#xA;&#x9;C639.645691,348.960052 633.496704,357.359436 623.688232,359.744141 &#xA;&#x9;C617.255676,361.308075 610.057861,358.515900 606.610779,352.311310 &#xA;&#x9;C604.518066,348.544617 601.940918,347.307190 597.826355,347.338226 &#xA;&#x9;C547.707275,347.716766 497.583496,346.804352 447.466187,347.875793 &#xA;&#x9;C446.635101,347.893585 445.800781,347.870361 444.970947,347.818512 &#xA;&#x9;C441.759399,347.617859 439.986908,345.808075 440.092651,342.681030 &#xA;&#x9;C440.198975,339.537201 442.368195,338.640656 445.276611,338.676117 &#xA;&#x9;C451.603424,338.753265 457.932159,338.656555 464.260101,338.660004 &#xA;&#x9;C508.889252,338.684204 553.518433,338.684814 598.147339,338.805084 &#xA;&#x9;C601.641357,338.814514 604.035400,338.247528 605.643982,334.662933 &#xA;&#x9;C607.659607,330.171417 611.793091,327.817932 616.786011,326.217407 &#xA;z"/>
  <path fill="#000000" stroke="none" d="&#xA;M566.903198,321.719727 &#xA;&#x9;C556.603943,332.467285 545.678345,331.862213 536.885315,320.220825 &#xA;&#x9;C535.506042,318.394775 534.095520,317.828217 531.869324,317.841339 &#xA;&#x9;C503.732391,318.007446 475.594879,318.070892 447.457458,318.149506 &#xA;&#x9;C445.319244,318.155487 443.075165,318.517120 441.368805,316.686035 &#xA;&#x9;C438.816986,313.947754 440.079346,309.670929 443.758179,308.919647 &#xA;&#x9;C445.203705,308.624481 446.742645,308.747192 448.239075,308.746277 &#xA;&#x9;C475.378479,308.729645 502.517914,308.707306 529.657288,308.737244 &#xA;&#x9;C532.611633,308.740509 534.884949,308.557678 536.432556,305.187775 &#xA;&#x9;C540.835754,295.599945 551.659668,292.046082 560.705383,296.788849 &#xA;&#x9;C570.143494,301.737335 572.744385,311.702820 566.903198,321.719727 &#xA;M544.647095,315.482849 &#xA;&#x9;C546.886414,319.920197 550.561951,321.132477 555.033630,319.646423 &#xA;&#x9;C558.875854,318.369507 561.007202,315.480774 560.736450,311.314941 &#xA;&#x9;C560.458862,307.044678 557.578857,304.892029 553.774963,303.962280 &#xA;&#x9;C547.751099,302.489807 543.508118,307.435150 544.647095,315.482849 &#xA;z"/>
  <path fill="#000000" stroke="none" d="&#xA;M421.287048,346.270325 &#xA;&#x9;C421.289734,348.376617 421.327759,350.037567 421.269226,351.695068 &#xA;&#x9;C421.107513,356.272736 418.768890,358.859253 414.135162,358.838562 &#xA;&#x9;C409.995667,358.820099 405.856537,358.480560 401.720276,358.232269 &#xA;&#x9;C401.079376,358.193817 400.362030,358.026123 399.836731,357.680237 &#xA;&#x9;C394.429749,354.120270 397.023895,348.653992 396.866791,343.981049 &#xA;&#x9;C396.741943,340.266998 399.879333,339.064178 403.071381,338.897247 &#xA;&#x9;C406.711060,338.706909 410.369629,338.847931 414.019501,338.889923 &#xA;&#x9;C418.575897,338.942322 421.196320,341.065094 421.287048,346.270325 &#xA;M415.271301,349.266632 &#xA;&#x9;C415.686920,346.566223 413.876556,345.599792 411.801941,345.538818 &#xA;&#x9;C408.789520,345.450226 405.393738,344.236053 402.910858,346.816986 &#xA;&#x9;C401.702637,348.072937 401.857300,350.634125 403.591583,350.988251 &#xA;&#x9;C407.385529,351.762848 411.523621,353.425262 415.271301,349.266632 &#xA;z"/>
  <path fill="#000000" stroke="none" d="&#xA;M359.821655,368.372559 &#xA;&#x9;C360.869751,361.623505 363.409821,359.451691 369.376251,359.750275 &#xA;&#x9;C375.083679,360.035889 377.550537,362.403625 377.805969,368.543610 &#xA;&#x9;C377.977539,372.667023 377.728699,376.827362 377.385590,380.947693 &#xA;&#x9;C376.980896,385.807953 374.242249,387.943939 368.942413,387.938751 &#xA;&#x9;C363.446533,387.933380 360.601990,385.960693 360.154602,381.247284 &#xA;&#x9;C359.764130,377.133606 359.910767,372.968994 359.821655,368.372559 &#xA;M370.147491,381.443329 &#xA;&#x9;C373.252960,377.243896 371.408203,372.555054 371.370667,368.070435 &#xA;&#x9;C371.360107,366.812225 370.028015,366.277679 368.746185,366.281311 &#xA;&#x9;C367.130951,366.285858 366.275024,367.203339 366.185669,368.733032 &#xA;&#x9;C365.992096,372.046021 365.775604,375.364807 365.790192,378.680267 &#xA;&#x9;C365.800049,380.913391 367.152527,381.955444 370.147491,381.443329 &#xA;z"/>
  <path fill="#000000" stroke="none" d="&#xA;M332.701477,347.159485 &#xA;&#x9;C333.296143,340.469330 334.998230,338.799194 341.034973,338.696686 &#xA;&#x9;C344.522247,338.637451 348.011566,338.682373 351.499847,338.699371 &#xA;&#x9;C355.748169,338.720062 357.937897,340.988708 358.208893,345.108673 &#xA;&#x9;C358.361206,347.423523 358.467743,349.779694 358.211334,352.074402 &#xA;&#x9;C357.791992,355.827759 355.692719,358.214294 351.725067,358.304169 &#xA;&#x9;C347.409271,358.401917 343.077972,358.473083 338.773193,358.219940 &#xA;&#x9;C334.141846,357.947571 332.777344,355.363312 332.701477,347.159485 &#xA;M349.744324,351.667725 &#xA;&#x9;C352.233704,351.141388 352.977173,349.444214 352.415924,347.211212 &#xA;&#x9;C351.895691,345.141479 349.991180,345.193573 348.346466,345.167725 &#xA;&#x9;C346.026093,345.131195 343.701263,345.199524 341.382294,345.307404 &#xA;&#x9;C339.395203,345.399811 338.370514,346.523346 338.374512,348.516785 &#xA;&#x9;C338.378601,350.539825 339.471588,351.587555 341.445282,351.648987 &#xA;&#x9;C343.931976,351.726379 346.421417,351.714386 349.744324,351.667725 &#xA;z"/>
  <path fill="#000000" stroke="none" d="&#xA;M377.081177,314.345032 &#xA;&#x9;C375.061096,319.736450 372.123688,321.667267 367.725555,320.849609 &#xA;&#x9;C362.787018,319.931427 361.552368,316.525299 361.696320,312.052948 &#xA;&#x9;C361.818817,308.246399 361.632446,304.430054 361.751862,300.623322 &#xA;&#x9;C361.906921,295.679626 364.462708,293.194214 369.132507,293.206696 &#xA;&#x9;C374.282318,293.220459 377.123474,295.653961 377.249878,300.499115 &#xA;&#x9;C377.366455,304.966827 377.194489,309.442108 377.081177,314.345032 &#xA;M367.179138,308.319641 &#xA;&#x9;C367.538055,310.204132 366.293610,312.773499 369.316193,313.617676 &#xA;&#x9;C371.685272,312.077118 371.150574,309.651428 371.052216,307.695557 &#xA;&#x9;C370.914246,304.951050 373.853333,300.151337 369.324493,299.955475 &#xA;&#x9;C365.660431,299.797058 367.778412,304.781525 367.179138,308.319641 &#xA;z"/>
  <path fill="#000000" stroke="none" d="&#xA;M333.923187,311.763519 &#xA;&#x9;C336.631531,308.939453 339.789429,309.856659 342.698029,309.828217 &#xA;&#x9;C350.068542,309.756134 350.067322,309.823639 349.963074,302.280670 &#xA;&#x9;C349.944702,300.949371 349.840668,299.607300 349.966949,298.288483 &#xA;&#x9;C350.212219,295.727478 351.255066,293.755859 354.220856,293.732025 &#xA;&#x9;C357.441162,293.706116 358.029419,295.951385 357.971985,298.473816 &#xA;&#x9;C357.862244,303.293945 357.579041,308.109863 357.440186,312.929657 &#xA;&#x9;C357.336578,316.526123 355.269196,317.977234 351.977722,318.003052 &#xA;&#x9;C346.990875,318.042206 342.021576,318.055756 337.026062,318.374512 &#xA;&#x9;C332.819763,318.642883 332.481537,315.450897 333.923187,311.763519 &#xA;z"/>
  <path fill="#000000" stroke="none" d="&#xA;M403.887207,295.182007 &#xA;&#x9;C404.165100,297.658203 404.345123,299.807892 404.327637,301.956024 &#xA;&#x9;C404.262146,309.992096 404.237854,309.988068 412.051941,309.893585 &#xA;&#x9;C413.548584,309.875519 415.058990,309.776764 416.539703,309.934387 &#xA;&#x9;C419.139008,310.211060 421.112061,311.517334 420.957275,314.343933 &#xA;&#x9;C420.807709,317.075348 419.060730,318.374115 416.214203,318.262939 &#xA;&#x9;C411.726318,318.087646 407.232391,318.072388 402.741547,317.967163 &#xA;&#x9;C399.139832,317.882782 397.363739,316.104187 397.105164,312.419159 &#xA;&#x9;C396.757355,307.462646 397.803772,302.436157 396.264496,297.532745 &#xA;&#x9;C395.815582,296.102844 396.646240,294.897461 397.863007,294.169128 &#xA;&#x9;C399.937134,292.927521 401.957764,292.893463 403.887207,295.182007 &#xA;z"/>
  <path fill="#000000" stroke="none" d="&#xA;M412.390442,372.362427 &#xA;&#x9;C405.024323,372.577759 405.025818,372.577759 405.047729,379.311066 &#xA;&#x9;C405.051514,380.476776 405.057526,381.643097 405.026306,382.808167 &#xA;&#x9;C404.949524,385.674652 403.804260,387.809204 400.648071,387.718903 &#xA;&#x9;C397.373413,387.625153 397.294647,384.987457 397.328156,382.606171 &#xA;&#x9;C397.384399,378.612976 397.639771,374.622742 397.709351,370.629517 &#xA;&#x9;C397.773346,366.956573 399.596100,365.062317 403.217773,364.963959 &#xA;&#x9;C407.545776,364.846466 411.876892,364.848419 416.205811,364.758087 &#xA;&#x9;C418.596771,364.708191 420.806976,365.201324 420.805939,368.041138 &#xA;&#x9;C420.804932,370.723328 419.118469,372.276337 416.305725,372.325562 &#xA;&#x9;C415.140106,372.345978 413.974182,372.348450 412.390442,372.362427 &#xA;z"/>
  <path fill="#000000" stroke="none" d="&#xA;M356.210754,385.313202 &#xA;&#x9;C352.774963,388.360138 350.243195,387.774109 349.189392,384.102325 &#xA;&#x9;C349.008636,383.472534 348.984497,382.791992 348.934235,382.131409 &#xA;&#x9;C348.226532,372.832092 348.231628,372.752686 338.557800,372.370239 &#xA;&#x9;C335.413971,372.245941 333.189301,371.150787 333.177490,367.888275 &#xA;&#x9;C333.163849,364.128265 336.125031,364.681183 338.639282,364.737915 &#xA;&#x9;C342.462128,364.824249 346.290405,364.928558 350.110321,364.817444 &#xA;&#x9;C354.416595,364.692230 356.645660,366.241608 356.379303,370.928101 &#xA;&#x9;C356.115540,375.568634 356.303345,380.234802 356.210754,385.313202 &#xA;z"/>
  <path fill="#000000" stroke="none" d="&#xA;M390.232941,339.020691 &#xA;&#x9;C390.233246,343.334076 390.155304,347.156525 390.268036,350.973328 &#xA;&#x9;C390.344208,353.551910 389.062958,354.650391 386.702911,354.675140 &#xA;&#x9;C384.395905,354.699341 382.859161,353.693665 382.858948,351.146088 &#xA;&#x9;C382.858551,346.994049 382.892548,342.841980 382.901062,338.689941 &#xA;&#x9;C382.906158,336.205688 383.251617,333.576965 379.945374,332.666077 &#xA;&#x9;C379.134338,332.442627 378.348907,331.683197 378.552826,330.819733 &#xA;&#x9;C379.399689,327.234161 382.396790,325.954193 385.466583,325.214783 &#xA;&#x9;C388.344696,324.521606 389.891449,326.423157 390.105072,329.067505 &#xA;&#x9;C390.358490,332.203827 390.210114,335.372650 390.232941,339.020691 &#xA;z"/>
  <path fill="#000000" stroke="none" d="&#xA;M366.709106,337.449554 &#xA;&#x9;C366.644806,335.528870 366.817169,333.969513 365.021881,333.221039 &#xA;&#x9;C363.253510,332.483795 361.405121,331.555908 362.695587,329.214844 &#xA;&#x9;C363.960022,326.921021 365.970123,325.458954 368.771149,325.523285 &#xA;&#x9;C370.966644,325.573669 373.028839,326.334991 373.124756,328.726868 &#xA;&#x9;C373.444458,336.697998 373.561066,344.680389 373.569550,352.658691 &#xA;&#x9;C373.571838,354.814636 371.735138,355.322205 369.936066,354.997437 &#xA;&#x9;C367.970612,354.642578 366.032745,354.226654 366.241241,351.328125 &#xA;&#x9;C366.562683,346.859222 366.570496,342.367706 366.709106,337.449554 &#xA;z"/>
  <path fill="#000000" stroke="none" d="&#xA;M383.330536,366.829376 &#xA;&#x9;C381.053253,366.049011 380.234222,364.677155 381.250793,362.860046 &#xA;&#x9;C382.589081,360.467896 384.845184,359.484497 387.587189,359.778015 &#xA;&#x9;C389.677673,360.001770 391.079651,361.169128 391.148407,363.279144 &#xA;&#x9;C391.294678,367.771454 391.196014,372.271210 391.271881,376.766632 &#xA;&#x9;C391.301758,378.539795 390.815521,380.479095 392.575531,381.848297 &#xA;&#x9;C394.387207,383.257812 394.547394,385.047882 392.979309,386.564575 &#xA;&#x9;C390.693298,388.775665 387.942474,387.757233 385.445435,386.916931 &#xA;&#x9;C383.627258,386.305115 383.194916,384.905396 383.726166,382.892334 &#xA;&#x9;C385.121735,377.604187 385.515961,372.252350 383.330536,366.829376 &#xA;z"/>
  <path fill="#000000" stroke="none" d="&#xA;M353.117004,324.394226 &#xA;&#x9;C356.753357,323.376862 358.427826,325.159119 358.701782,327.949341 &#xA;&#x9;C358.987427,330.858795 357.007904,332.760040 354.222961,332.910461 &#xA;&#x9;C348.429535,333.223480 342.613495,333.253357 336.809631,333.177948 &#xA;&#x9;C334.107422,333.142853 333.214264,330.964752 333.114349,328.683563 &#xA;&#x9;C332.994202,325.939606 334.814301,324.949768 337.300415,324.888947 &#xA;&#x9;C342.437286,324.763184 347.574280,324.644257 353.117004,324.394226 &#xA;z"/>
  <path fill="#000000" stroke="none" d="&#xA;M384.628052,308.796417 &#xA;&#x9;C384.523407,304.894714 385.795197,301.001190 381.092712,299.159515 &#xA;&#x9;C380.085419,298.765045 380.341309,297.046509 381.015625,295.986053 &#xA;&#x9;C382.459045,293.715942 384.800171,293.479614 387.171936,293.467957 &#xA;&#x9;C389.065948,293.458649 390.446808,294.438751 390.776611,296.278961 &#xA;&#x9;C391.125183,298.224152 391.183899,300.236389 391.209076,302.221375 &#xA;&#x9;C391.263824,306.543854 390.973969,310.884766 391.278198,315.186096 &#xA;&#x9;C391.595886,319.678040 389.360931,320.636993 385.552155,320.344666 &#xA;&#x9;C382.771698,320.131256 381.777252,318.614410 383.087585,316.406189 &#xA;&#x9;C384.466278,314.082794 384.636627,311.737823 384.628052,308.796417 &#xA;z"/>
  <path fill="#000000" stroke="none" d="&#xA;M416.768127,325.134399 &#xA;&#x9;C419.888367,325.608185 421.423950,327.102997 420.782318,329.952728 &#xA;&#x9;C420.223450,332.434998 418.350159,333.255585 415.905090,333.222473 &#xA;&#x9;C411.267120,333.159698 406.627350,333.176727 401.988922,333.222137 &#xA;&#x9;C398.815460,333.253174 396.774628,331.934967 396.877838,328.600952 &#xA;&#x9;C396.982727,325.212494 399.584412,325.500488 401.975159,325.535248 &#xA;&#x9;C406.772736,325.605072 411.581909,325.958923 416.768127,325.134399 &#xA;z"/>
</svg>